<?xml version="1.0" encoding="utf-8"?>
<!-- Generator: Adobe Illustrator 16.0.0, SVG Export Plug-In . SVG Version: 6.00 Build 0)  -->
<!DOCTYPE svg PUBLIC "-//W3C//DTD SVG 1.1//EN" "http://www.w3.org/Graphics/SVG/1.1/DTD/svg11.dtd">
<svg version="1.1" id="Layer_1" focusable="false" xmlns="http://www.w3.org/2000/svg" xmlns:xlink="http://www.w3.org/1999/xlink"
	 x="0px" y="0px" width="16px" height="16px" viewBox="0 0 16 16" enable-background="new 0 0 16 16" xml:space="preserve">
<path d="M14.247,1.165C12.44-0.569,9.65-0.308,7.922,1.7C6.194-0.308,3.403-0.573,1.597,1.165c-2.35,2.258-2.006,5.94-0.331,7.893
	l5.481,6.375C7.06,15.797,7.478,16,7.922,16c0.447,0,0.862-0.199,1.175-0.563l5.481-6.376C16.25,7.109,16.6,3.427,14.247,1.165z
	 M13.51,7.854L8.028,14.23c-0.075,0.086-0.138,0.086-0.213,0L2.334,7.854C1.194,6.527,0.962,4.016,2.563,2.478
	c1.216-1.167,3.091-0.992,4.266,0.375l1.094,1.274l1.094-1.274c1.182-1.374,3.057-1.541,4.266-0.378
	C14.878,4.012,14.641,6.539,13.51,7.854z"/>
</svg>
